<svg xmlns="http://www.w3.org/2000/svg" width="203" height="203" viewBox="0 0 203 203">
  <defs>
    <style>
      .cls-1 {
        fill: #fff;
        fill-rule: evenodd;
      }
    </style>
  </defs>
  <path id="logo_white" data-name="logo white" class="cls-1" d="M179.669,368.826c3.021-.309,5.057-0.545,8.115-0.942a1.341,1.341,0,0,0,1.169-1.35,216.81,216.81,0,0,0-6.94-50.135l-2.172.361c1.343,16.841.373,33.79-1.635,50.578A1.336,1.336,0,0,0,179.669,368.826Zm68.874-99.267q-1.59,1.5-3.353,2.882c-7.248,6.14-17.63,10.466-27.642,10.329-1.931.359-4.463-.369-7.839-1.34l-3.376-.97a65.526,65.526,0,0,1,10.84-19.789A102.715,102.715,0,0,0,205.5,260,101.449,101.449,0,1,0,248.543,269.559Zm-64.564,22.329c0.371,0.12.727,0.249,1.2,0.4a0.5,0.5,0,0,1,.248.178c9.1,12.383,14.931,25.961,18.58,40.75l1.464-.144c0.5-12.554-.333-27.056-9.021-36.737a0.465,0.465,0,0,1,.433-0.768c0.661,0.128,1.263.223,2.1,0.334a0.514,0.514,0,0,1,.275.127c11.751,10.762,12.072,28.047,10.861,42.736a0.437,0.437,0,0,0,.034.211c6.743,16.062,13.784,38.922.784,53.959a0.555,0.555,0,0,1-.048.049c-0.426.387-.784,0.708-1.123,1a0.465,0.465,0,0,1-.716-0.572c7.727-13.911,3.666-31.758-1.287-46.256l-1.457.3c1.532,19.1-1.1,37.379-9.065,55.03a0.493,0.493,0,0,1-.218.231c-0.579.309-1,.531-1.476,0.766a0.466,0.466,0,0,1-.643-0.587c13.911-36.229,9.4-77.619-11.457-110.318A0.465,0.465,0,0,1,183.979,291.888Zm-9.211-1.747c0.191,0.023.386,0.048,0.595,0.076a1.347,1.347,0,0,1,1.037.746c11.181,23.1,16.257,49.154,16.532,74.69a1.332,1.332,0,0,0,1.527,1.307c0.565-.084,1.075-0.162,1.629-0.248a1.338,1.338,0,0,1,1.542,1.388c-0.2,3.71-.481,7.361-0.87,11.063a1.345,1.345,0,0,1-1.063,1.173c-0.917.19-1.636,0.332-2.565,0.507A1.34,1.34,0,0,0,192.053,382a174.785,174.785,0,0,1-4.628,24.33,1.344,1.344,0,0,1-.861.923l-0.029.01a1.328,1.328,0,0,1-1.734-1.529,200.749,200.749,0,0,0,3.457-22.36,1.332,1.332,0,0,0-1.522-1.444c-3.524.514-7.031,0.963-10.572,1.353a1.333,1.333,0,0,1-1.476-1.323q-0.024-7.663-.3-15.314a1.294,1.294,0,0,1,.007-0.187c2.7-24.311,4.55-50.568-1.078-74.684A1.332,1.332,0,0,1,174.768,290.141Zm-28.123,17.28a58.82,58.82,0,0,1,2.795-9.985,29.986,29.986,0,0,1,3-6.057,5.62,5.62,0,0,1,2.794-2.5c1.174-.324,2.227.218,3.343,1.683,1.069,1.4,2.225,4.013,3.663,8.147a2.362,2.362,0,0,1,.1,1.146c-0.046.292-.091,0.573-0.134,0.846a2.348,2.348,0,0,1-4.279.911l-0.041-.061c-0.98-1.417-1.886-2-2.813-1.8a3.743,3.743,0,0,0-2.02,1.5,13.457,13.457,0,0,0-1.876,3.627,30.725,30.725,0,0,0-1.444,6.142,51.5,51.5,0,0,0-.411,8.927,55,55,0,0,0,.636,7.051,27.036,27.036,0,0,0,1.481,5.558A19.351,19.351,0,0,0,154,337.147a32.064,32.064,0,0,0,3.884,4.193,56.181,56.181,0,0,1,4.445,4.626,27.222,27.222,0,0,1,4.052,6.65,49.345,49.345,0,0,1,3.157,10.518,92.165,92.165,0,0,1,1.518,15.793,97.039,97.039,0,0,1-.886,16.15,59.556,59.556,0,0,1-2.487,10.779,18.818,18.818,0,0,1-3.15,6.088,4.48,4.48,0,0,1-3.481,1.881,4.289,4.289,0,0,1-2.384-.955,11.693,11.693,0,0,1-2.51-2.781,32.293,32.293,0,0,1-2.648-4.863,58.668,58.668,0,0,1-2.541-6.848,2.359,2.359,0,0,1-.062-1.153c0.04-.211.08-0.416,0.12-0.617a2.366,2.366,0,0,1,4.462-.556,20.533,20.533,0,0,0,1.125,2.128c1.371,2.237,2.662,3.356,3.969,3.372a3.069,3.069,0,0,0,2.284-1.311,12.249,12.249,0,0,0,2.049-3.96,35.366,35.366,0,0,0,1.47-6.631,54.864,54.864,0,0,0,.381-9.357,61.746,61.746,0,0,0-.977-9.64,25.764,25.764,0,0,0-2.1-6.412,20.144,20.144,0,0,0-3.294-4.774c-1.3-1.388-2.82-3.059-4.553-4.8a33.938,33.938,0,0,1-3.9-4.648,29.408,29.408,0,0,1-3.233-6.45,51.128,51.128,0,0,1-2.323-9.125,85.268,85.268,0,0,1-.971-12.553A69.1,69.1,0,0,1,146.645,307.421ZM135.4,404.389a106.494,106.494,0,0,1-8.252-12.293,109.292,109.292,0,0,1-8.188-17.411,72.946,72.946,0,0,1-4.262-21.5,61.462,61.462,0,0,1,2.794-21.015,79.315,79.315,0,0,1,7.822-17.493,117.947,117.947,0,0,1,8.6-12.223c2.541-3.177,4.356-5.194,5.636-6.1,1.167-.824,1.746-0.55,2.2,1.065,0.437,1.561.521,4.741,0.794,10.018a2.532,2.532,0,0,1-.195,1.117l-0.042.1a2.525,2.525,0,0,1-4.733-.208c-0.027-.087-0.054-0.171-0.082-0.253-0.58-1.676-1.277-2.192-2.354-1.685-1.246.587-2.781,2.261-4.668,4.986a71.076,71.076,0,0,0-10.484,24.79,62.515,62.515,0,0,0-1.439,16.634,77.557,77.557,0,0,0,2.857,17.264,88.4,88.4,0,0,0,5.534,14.153A61.076,61.076,0,0,0,133,394.33c1.967,2.575,3.683,4.1,5.231,4.468,1.676,0.4,2.88-.556,3.7-2.967a23.7,23.7,0,0,0,.731-2.69,2.525,2.525,0,0,1,4.775-.517l0.076,0.17a2.522,2.522,0,0,1,.216,1.2c-0.294,4.47-.428,9.168-1.905,13.335-0.91,2.57-2.265,3.469-4.174,2.787C139.942,409.507,137.909,407.566,135.4,404.389Zm130.855,31.119c-5.27,6.147-12.3,13.173-21.078,14.051-19.321,2.635-34.25-12.3-53.571-6.147-9.661,3.513-20.2,8.782-30.738,5.269a28.711,28.711,0,0,1-13.173-9.66q-3.835-3.836-7.413-8.129a6.774,6.774,0,0,1,6.736-10.957,70.933,70.933,0,0,0,64.405-121.313,5.257,5.257,0,0,1,2.008-8.856l0.13-.043c7.9-2.635,15.808-5.269,24.59-6.148,28.982-2.634,52.694,17.565,59.72,45.668,0.878,5.269,1.756,9.66,1.756,14.93,0.878,10.538-.878,20.2-2.635,29.859A145.258,145.258,0,0,1,266.255,435.508Z" transform="translate(-104 -260)"/>
</svg>
